HIERARCHY
ROOT SimulationBone
{
	OFFSET 0.000000 0.000000 0.000000
	CHANNELS 6 Xposition Yposition Zposition Zrotation Yrotation Xrotation 
	JOINT Hips
	{
		OFFSET 0.000000 0.000000 0.000000
		CHANNELS 6 Xposition Yposition Zposition Zrotation Yrotation Xrotation 
		JOINT LeftUpLeg
		{
			OFFSET 0.103458 1.857831 10.548505
			CHANNELS 3 Zrotation Yrotation Xrotation
			JOINT LeftLeg
			{
				OFFSET 43.500000 -0.000031 0.000002
				CHANNELS 3 Zrotation Yrotation Xrotation
				JOINT LeftFoot
				{
					OFFSET 42.372200 0.000023 0.000003
					CHANNELS 3 Zrotation Yrotation Xrotation
					JOINT LeftToe
					{
						OFFSET 17.299997 -0.000001 -0.000010
						CHANNELS 3 Zrotation Yrotation Xrotation
						End Site
						{
							OFFSET 0.000000 0.000000 0.000000
						}
					}
				}
			}
		}
		JOINT RightUpLeg
		{
			OFFSET 0.103457 1.857828 -10.548510
			CHANNELS 3 Zrotation Yrotation Xrotation
			JOINT RightLeg
			{
				OFFSET 43.500046 -0.000015 0.000002
				CHANNELS 3 Zrotation Yrotation Xrotation
				JOINT RightFoot
				{
					OFFSET 42.372261 -0.000008 0.000023
					CHANNELS 3 Zrotation Yrotation Xrotation
					JOINT RightToe
					{
						OFFSET 17.299990 -0.000007 -0.000002
						CHANNELS 3 Zrotation Yrotation Xrotation
						End Site
						{
							OFFSET 0.000000 0.000000 0.000000
						}
					}
				}
			}
		}
		JOINT Spine
		{
			OFFSET 6.901967 -2.603726 -0.000001
			CHANNELS 3 Zrotation Yrotation Xrotation
			JOINT Spine1
			{
				OFFSET 12.588100 -0.000009 -0.000003
				CHANNELS 3 Zrotation Yrotation Xrotation
				JOINT Spine2
				{
					OFFSET 12.343202 0.000008 0.000008
					CHANNELS 3 Zrotation Yrotation Xrotation
					JOINT Neck
					{
						OFFSET 25.832897 -0.000015 -0.000004
						CHANNELS 3 Zrotation Yrotation Xrotation
						JOINT Head
						{
							OFFSET 11.766609 0.000013 -0.000006
							CHANNELS 3 Zrotation Yrotation Xrotation
							End Site
							{
								OFFSET 0.000000 0.000000 0.000000
							}
						}
					}
					JOINT LeftShoulder
					{
						OFFSET 19.745911 -1.480373 6.000098
						CHANNELS 3 Zrotation Yrotation Xrotation
						JOINT LeftArm
						{
							OFFSET 11.284123 -0.000007 -0.000032
							CHANNELS 3 Zrotation Yrotation Xrotation
							JOINT LeftForeArm
							{
								OFFSET 33.000050 0.000005 0.000031
								CHANNELS 3 Zrotation Yrotation Xrotation
								JOINT LeftHand
								{
									OFFSET 25.200008 0.000017 0.000013
									CHANNELS 3 Zrotation Yrotation Xrotation
									End Site
									{
										OFFSET 0.000000 0.000000 0.000000
									}
								}
							}
						}
					}
					JOINT RightShoulder
					{
						OFFSET 19.746092 -1.480379 -6.000077
						CHANNELS 3 Zrotation Yrotation Xrotation
						JOINT RightArm
						{
							OFFSET 11.284136 -0.000017 -0.000017
							CHANNELS 3 Zrotation Yrotation Xrotation
							JOINT RightForeArm
							{
								OFFSET 33.000099 0.000019 0.000015
								CHANNELS 3 Zrotation Yrotation Xrotation
								JOINT RightHand
								{
									OFFSET 25.199780 0.000140 0.000408
									CHANNELS 3 Zrotation Yrotation Xrotation
									End Site
									{
										OFFSET 0.000000 0.000000 0.000000
									}
								}
							}
						}
					}
				}
			}
		}
	}
}
MOTION
Frames: 10
Frame Time: 0.033333
306.250572 0.000000 232.611914 0.000000 32.738363 0.000000 -0.060119 89.596313 0.880551 93.220833 3.853657 171.821381 155.695378 -6.611204 171.834869 -14.645018 -2.448174 -12.306141 65.537373 7.316587 -4.925874 21.454560 0.003109 0.000016 -172.413523 -4.298096 -178.129121 -17.505833 4.065034 1.718773 84.754984 -1.883656 -2.875704 21.454545 -0.003088 0.000001 7.993846 0.974158 0.735819 5.988366 1.909156 1.521037 5.670184 1.918163 1.509479 14.522937 -0.060985 3.504852 -5.379011 -6.489711 5.290515 -168.194310 -71.268926 -13.524421 3.358381 62.726060 43.240893 -27.410811 -15.674763 1.250955 7.395492 5.933882 14.883530 177.082135 77.287627 -1.459572 -69.177358 -52.421272 -1.390929 -52.657627 16.841469 -1.961252 2.349145 4.782315 -29.532321 
309.287178 0.000000 230.382560 0.000000 33.995864 0.000000 0.394513 88.649902 1.005363 93.513257 4.738240 172.702587 155.255227 -5.562304 168.342539 -11.105163 -2.306289 -12.921977 67.541002 7.735043 -5.103939 21.454557 0.003120 0.000017 -170.028721 -5.255097 -177.683628 -19.350278 3.510164 2.357224 86.651550 -2.001849 -1.452330 21.454558 -0.003097 -0.000000 7.952685 1.187124 0.680903 5.908297 2.338150 1.421535 5.589998 2.346547 1.407387 14.854763 0.195050 3.369320 -4.923157 -6.204835 5.062230 -168.172904 -70.984729 -13.546946 4.415233 62.666979 44.605339 -28.166630 -16.035578 1.287525 7.892594 7.244473 15.702062 178.300913 77.398665 -0.214908 -67.932372 -51.661379 0.050906 -59.551047 16.251750 -2.166972 0.695072 3.703147 -34.955873 
312.323683 0.000000 228.162459 0.000000 35.394851 0.000000 0.770372 87.867401 1.094790 94.011954 5.056604 173.727727 155.268013 -3.687902 162.516824 -11.604756 -1.470775 -11.035270 67.918909 7.057391 -3.042875 21.454558 0.003105 0.000015 -168.057078 -5.796098 -177.398550 -21.962243 3.088494 3.287273 86.921841 -2.283924 0.488648 21.454550 -0.003091 0.000000 7.926939 1.237235 0.603593 5.855897 2.442533 1.269013 5.537570 2.450014 1.254223 15.037259 0.977881 3.383954 -4.271193 -6.451971 5.129923 -167.314172 -71.052272 -14.431247 4.597521 62.860164 44.782811 -28.684527 -16.166516 1.305427 7.652225 7.103881 15.723247 -179.218713 77.311581 2.312285 -65.702540 -51.531752 1.666005 -65.128156 14.906651 -2.288742 -1.919341 3.311785 -37.654252 
315.349303 0.000000 225.934000 0.000000 36.896950 0.000000 1.153037 87.115372 1.158612 94.606022 4.986074 174.711470 155.397404 -2.137409 159.593913 -15.420998 -0.951663 -8.297964 65.955367 7.128853 2.752178 21.454558 0.003096 0.000016 -167.053436 -5.642308 -174.770389 -26.453936 2.390862 2.818654 85.479701 -1.589196 2.416607 21.454546 -0.003090 0.000000 7.871948 1.123870 0.515433 5.742644 2.220951 1.085911 5.424344 2.227329 1.072473 15.467798 2.517354 3.817425 -3.644123 -7.397339 5.820482 -166.452011 -71.187858 -15.318649 4.739239 62.689867 44.781295 -29.516697 -16.351770 1.333026 7.698163 5.286703 14.430977 -177.747299 76.584254 3.802608 -61.624391 -51.764091 1.716368 -69.435587 13.545784 -2.367585 -2.560487 2.958398 -35.612002 
318.361543 0.000000 223.672553 0.000000 38.487976 0.000000 1.267442 86.362137 1.084707 95.271238 4.034803 175.169937 155.188537 -0.095310 164.247007 -20.378955 -1.948847 -9.155320 65.829677 10.037325 9.009811 21.454555 0.003110 0.000019 -167.740198 -3.887302 -171.364378 -33.810160 1.945213 1.841216 82.224945 -0.651560 3.228934 21.454553 -0.003090 0.000000 7.840790 0.782769 0.458743 5.675675 1.542262 0.955187 5.357509 1.547867 0.945853 16.304234 4.138970 4.939409 -3.022173 -8.839378 7.309735 -166.061706 -71.093977 -15.721024 4.596370 62.184460 43.960525 -30.620786 -16.502340 1.364377 7.372383 2.785799 12.983371 -175.657316 76.388262 5.934284 -57.492981 -52.594577 0.588151 -71.904420 13.073579 -2.436440 -3.057224 3.375726 -32.854060 
321.364633 0.000000 221.367191 0.000000 40.183561 0.000000 1.417745 85.797661 0.758385 96.287613 2.075481 175.034647 154.841304 3.209900 170.368865 -26.537354 -2.838369 -12.619889 68.408975 12.192850 8.993353 21.454557 0.003107 0.000016 -170.162975 -0.098601 -167.971304 -44.662733 0.635309 -0.001551 75.909712 1.631104 5.790326 21.454550 -0.003090 -0.000001 7.896621 0.225736 0.402349 5.781950 0.431242 0.815428 5.463868 0.436018 0.812806 17.518377 4.731367 6.701521 -2.661409 -9.682134 9.279107 -165.432673 -70.629627 -16.371745 3.213068 61.356368 42.145471 -31.507205 -16.690313 1.394509 7.351342 0.313423 11.390421 -174.596110 76.229255 7.016682 -53.479640 -53.792261 -0.758921 -71.826570 13.161825 -2.439352 -2.197210 3.669902 -30.898461 
324.339563 0.000000 219.024655 0.000000 41.998578 0.000000 1.477041 85.404518 0.403477 97.111180 0.554756 174.304112 155.208905 5.219103 173.007052 -31.906682 -4.620737 -14.052461 73.390389 12.604668 8.737595 21.454562 0.003098 0.000017 -175.492995 3.935699 -168.120243 -59.099093 0.079636 -1.245113 70.159273 3.131844 6.467376 21.454557 -0.003093 0.000000 7.960298 -0.254809 0.432947 5.905826 -0.531219 0.852397 5.587753 -0.526199 0.855579 19.133236 4.698143 8.761616 -2.442698 -10.823737 11.612046 -164.904399 -70.011638 -16.920574 0.400758 60.395019 39.438212 -31.905402 -17.346310 1.444868 6.587774 -0.957098 10.108039 -175.855419 76.163931 5.729593 -49.398602 -55.195933 -2.881041 -69.189181 14.572289 -2.428662 -2.136244 5.005844 -32.071085 
327.247131 0.000000 216.660858 0.000000 43.939509 0.000000 1.557827 85.452728 0.202640 98.079464 -0.370614 173.593341 157.429413 6.640797 169.938754 -34.590718 -3.503940 -12.042167 77.099770 10.879213 9.044389 21.454560 0.003109 0.000018 179.223372 6.049307 -170.078745 -70.872864 -1.322185 -2.098962 65.320070 3.959969 5.976020 21.454557 -0.003095 -0.000002 8.076355 -0.548950 0.451726 6.135871 -1.120916 0.873886 5.817762 -1.115746 0.880630 20.837000 4.531204 10.884511 -2.262573 -12.559401 14.151985 -165.114332 -69.453448 -16.707712 -2.331817 59.534306 35.648318 -32.928683 -17.934313 1.504580 6.407906 -0.836042 10.818611 -177.024310 76.419920 4.538610 -46.403424 -56.667365 -5.453409 -63.407563 16.758924 -2.348863 -0.803743 6.848122 -32.339812 
330.087688 0.000000 214.277663 0.000000 46.005555 0.000000 1.675802 86.175629 0.080936 98.715968 -0.434175 173.598044 160.955675 7.835009 170.764278 -34.194915 -3.375970 -11.315463 79.188947 10.153600 9.056875 21.454560 0.003109 0.000017 173.832262 6.749695 -173.871659 -78.728018 -0.826248 -1.959522 66.964466 3.193604 4.500216 21.454538 -0.003087 0.000000 8.121510 -0.574851 0.332930 6.227288 -1.166632 0.634613 5.909132 -1.162925 0.641638 22.446648 4.035820 12.857302 -2.174518 -13.852710 16.468320 -164.811003 -69.806787 -17.018357 -5.033145 59.732402 32.607408 -33.640242 -18.056990 1.528238 6.287538 -1.795983 11.777520 -175.281683 76.265114 6.316725 -44.636109 -57.540922 -8.095483 -54.129738 18.195854 -2.103143 0.686298 7.556115 -28.424239 
332.850517 0.000000 211.870599 0.000000 48.195302 0.000000 1.804979 87.115227 0.074970 99.041214 -0.340255 174.775708 165.053079 9.048494 174.061442 -32.169501 -3.822775 -11.008056 80.327225 9.842756 9.127470 21.454560 0.003111 0.000017 168.918788 6.619702 -175.562144 -83.120520 -1.348020 -0.551959 68.917818 1.627106 3.206840 21.454550 -0.003093 0.000002 8.091635 -0.465580 -0.028925 6.170935 -0.928909 -0.082534 5.852798 -0.929527 -0.076926 23.547543 3.174207 14.526762 -1.610403 -14.764186 18.346074 -164.158406 -69.662151 -17.693028 -7.568660 59.322201 31.414663 -35.008640 -18.707412 1.601505 6.193650 -1.523732 11.537867 -172.626584 75.901761 9.027030 -43.164559 -58.043193 -9.801484 -42.921073 17.829927 -1.722627 3.153542 8.146701 -23.433785 
